# xmcd CD database file generated by LOLA_Freedb v0.9beta0
# 
# Track frame offsets:
#      150
#      22590
#      45140
#      58709
#      74560
#      101827
#      119560
#      140986
#      152551
#      168739
# 
# Disc length: 2503 seconds
# 
# Revision: 0 
# Processed by: cddbd v1.5.2PL0 Copyright (c) Steve Scherf et al.
# Submitted via: LOLA_Freedb v0.9beta0
# 
DISCID=8a09c50a
DTITLE=Big Bill Broonzy - Big Bill Broonzy (Philips LP)
DYEAR=1900
DGENRE=
TTITLE0=Big Bill Broonzy - Bossie woman
TTITLE1=Big Bill Broonzy - Texas tornado
TTITLE2=Big Bill Broonzy - Tell me what kind of man Jesusu is
TTITLE3=Big Bill Broonzy - Trouble in mind
TTITLE4=Big Bill Broonzy - See see rider
TTITLE5=Big Bill Broonzy - When I've been drinkin
TTITLE6=Big Bill Broonzy - Martha
TTITLE7=Big Bill Broonzy - Swing low, sweet chariot
TTITLE8=Big Bill Broonzy - Key to the highway
TTITLE9=Big Bill Broonzy - Goodbye baby blues
EXTD=
EXTT0=
EXTT1=
EXTT2=
EXTT3=
EXTT4=
EXTT5=
EXTT6=
EXTT7=
EXTT8=
EXTT9=
PLAYORDER=
